<svg xmlns="http://www.w3.org/2000/svg" viewBox="0 0 25 25">
	<title>Icon - Dog Possible</title>
	<g>
		<path d="M22.5,21.8c-0.7-2.3-0.3-4.4-0.1-5.9c0.2-1.5,1.2-6.9-2.6-9c-0.7-1.8-2.3-2-1.9-3.7c0.3-1.5,2.4-2,5.3-1.4
			c0,0-0.7-0.7-1.3-0.8C22,1,22.3,1,22.3,0.9c0-0.1-0.3-0.3-1.2-0.2c0,0,0,0,0,0c0.3-0.2,0.5-0.2,0.6-0.3c0.1-0.1,0-0.1-0.1-0.1
			c-0.4-0.2-1.4,0.4-1.5,0.4c0.2-0.2,0.5-0.4,0.5-0.6c-0.3-0.5-1.4,0.9-1.5,0.7c0,0,0.4-0.7,0.2-0.8c-0.3-0.1-0.9,1-0.9,1
			c0,0,0-0.7-0.1-0.7c-0.6,0.2-0.7,1.4-0.9,1.4c-0.1,0,0-0.6-0.1-0.7c-0.6,1-0.6,1.9-0.6,2.7c0.1,0.9,0.5,1.7,0.2,2.5
			c-5.5,0.8-4.8,6.9-6.5,7.6c-0.2,0.1-0.5,0.2-0.6,0.2C10,14.9,10,16,9.7,17.1c-0.3,1-1.1,1.9-1.5,2.3c0.9,0.5,2.1,1.1,2.5,1.4
			c-1.5,0.2-4.8,0.5-6.1,1C4.2,22,4,22.3,4,22.5C4,22.8,4.8,23,5.5,23c0.6,0,5.1-0.3,6.6-0.3c-0.4,0.7-2.3,1.4-1.2,2
			C11,25,11.2,25,11.5,25c1.8,0.2,3.3-2.7,3.3-3.2c0.8,0.1,2.3,0,2.5-0.2c0.3-0.3-0.1-2.2-0.8-2.8c1.2-0.9,3.1-3.9,3.2-4.9
			c0,0,0,0,0,0c0,0,0,0,0,0c0.2,0.3,0.3,0.7,0.4,1.3c0.1,0.8,0.1,1.9,0.1,2.9c0.1,1.6,0.4,3.7,0.7,4.6c0.5,1.3,1.5,1.9,2.8,1.8
			c0.4,0,1.1-0.1,1.1-0.7C24.9,23,23,23.2,22.5,21.8z"/>
		<path d="M6.5,19.5c0.2-0.2,0.3-0.3,0.5-0.5C7,19,7.1,18.9,7.1,18.8c0,0,0.2,0.1,0.5,0.3c0.3-0.3,1.1-1.2,1.4-2.2
			c0.3-1,0.2-2.1,0.1-2.7c-0.4-0.1-0.6-0.4-0.6-0.4c0-0.1,0.5-0.6,0.4-1c0-0.1-0.2-0.5,0.2-0.8c0.4-0.3,1.6-0.7,1.7-1.4
			c0,0,0.1-0.2,0-0.2c-0.6,0.3-1.2,0.3-1.8,0.2c-0.9-0.1-1.7-0.3-2.6,0.6c0,0,0.2-0.6,0.2-0.7c-0.2-0.1-0.7,0.6-0.8,1.2
			c0,0-0.1-0.5-0.3-0.4c-0.2,0.1-0.1,1-0.1,1c-0.7,0.1-1.9,0-2.1,0c-0.5-0.5-1.2-0.9-1.4-0.8c-0.3,0.1,0.2,0.4,0.3,0.6
			C2,12,1.1,11.7,1,11.9c-0.1,0.1,0.3,0.2,0.4,0.3c-0.1,0-0.2,0-0.3,0c-0.7,0.1-1.1,3.4-0.9,3.5c0.3,0.2,0.9-0.9,1.2-1.2
			c0.7,0.2,1.1,0.6,1.5,1.5c0.3,0.7-0.8,1.5-0.6,2c-0.4,0-0.5,0.3-0.5,0.7c0,0.3,0.2,0.4,0.5,0.5c0.3,0,0.5-0.1,0.5-0.1
			c0,0,0.7,0.7,2.3-0.3c0.1,0,0.4-0.4,0.6-0.4c0.2,0.1-0.3,0.7-0.6,1c-0.9,0.6-1.1,0.1-1.2,0.8C3.7,20.5,5.6,20.4,6.5,19.5z"/>
	</g>
</svg>
