<svg xmlns="http://www.w3.org/2000/svg" viewBox="0 0 25 25">
	<title>Icon - Instagram</title>
	<g>
		<path d="M12.4,6.1c-1.8,0-3.3,0.6-4.6,1.9C6.7,9.2,6,10.7,6,12.5c0,1.8,0.6,3.3,1.9,4.6c1.3,1.2,2.7,1.9,4.6,1.9
			c1.8,0,3.3-0.6,4.6-1.9c1.2-1.3,1.9-2.7,1.9-4.6c0-1.8-0.6-3.3-1.9-4.6C15.8,6.7,14.3,6.1,12.4,6.1z M15.4,15.4
			c-0.8,0.8-1.8,1.2-3,1.2s-2.2-0.4-3-1.2c-0.8-0.8-1.2-1.8-1.2-2.9s0.4-2.2,1.2-3c0.8-0.8,1.8-1.2,3-1.2s2.2,0.4,3,1.2
			c0.8,0.8,1.2,1.9,1.2,3C16.6,13.6,16.2,14.6,15.4,15.4z"/>
		<path d="M24.9,7.4c-0.1-2.3-0.8-4-2-5.3s-3-1.9-5.3-2C16.7,0,15,0,12.5,0C10,0,8.3,0,7.4,0.1c-2.3,0.1-4,0.8-5.3,2
			c-1.3,1.2-1.9,3-2,5.3C0,8.3,0,10,0,12.5s0,4.2,0.1,5.1c0.1,2.3,0.8,4,2,5.3c1.2,1.3,3,1.9,5.3,2C8.3,25,10,25,12.5,25
			c2.5,0,4.2,0,5.1-0.1c2.3-0.1,4-0.8,5.3-2c1.3-1.2,1.9-3,2-5.3C25,16.7,25,15,25,12.5S24.9,8.3,24.9,7.4z M22.8,11.3
			c0,0.8,0,1.2,0,1.2c0,0.1,0,0.5,0,1.2c0,0.7,0,1.3,0,1.7s-0.1,0.9-0.1,1.6c-0.1,0.7-0.1,1.2-0.2,1.7c-0.1,0.5-0.2,0.9-0.3,1.2
			c-0.2,0.6-0.5,1.1-0.9,1.5c-0.5,0.4-0.9,0.7-1.5,0.9c-0.3,0.1-0.7,0.2-1.2,0.3c-0.5,0.1-1.1,0.2-1.7,0.2c-0.6,0.1-1.2,0.1-1.6,0.1
			c-0.4,0-0.9,0-1.7,0c-0.8,0-1.2,0-1.2,0c-0.1,0-0.5,0-1.2,0c-0.7,0-1.3,0-1.7,0s-0.9,0-1.6-0.1c-0.7-0.1-1.2-0.1-1.7-0.2
			c-0.5-0.1-0.9-0.2-1.2-0.3c-0.6-0.2-1.1-0.5-1.5-0.9c-0.4-0.5-0.7-0.9-0.9-1.5c-0.1-0.3-0.2-0.7-0.3-1.2c-0.1-0.5-0.2-1.1-0.2-1.7
			c-0.1-0.6-0.1-1.2-0.1-1.6c0-0.4,0-0.9,0-1.7c0-0.8,0-1.2,0-1.2c0-0.1,0-0.5,0-1.2c0-0.7,0-1.3,0-1.7c0-0.4,0.1-0.9,0.1-1.6
			c0.1-0.7,0.1-1.2,0.2-1.7c0.1-0.5,0.2-0.9,0.3-1.2C3,4.6,3.3,4.1,3.7,3.7C4.1,3.3,4.6,3,5.1,2.7c0.3-0.1,0.7-0.2,1.2-0.3
			C6.8,2.3,7.4,2.3,8,2.3c0.6-0.1,1.2-0.1,1.6-0.1c0.4,0,0.9,0,1.7,0c0.8,0,1.2,0,1.2,0c0.1,0,0.5,0,1.2,0c0.8,0,1.3,0,1.7,0
			c0.4,0,0.9,0.1,1.6,0.1c0.7,0.1,1.2,0.1,1.7,0.2c0.5,0.1,0.9,0.2,1.2,0.3c0.6,0.2,1.1,0.5,1.5,0.9c0.4,0.5,0.7,0.9,0.9,1.5
			c0.1,0.3,0.2,0.7,0.3,1.2c0.1,0.5,0.2,1.1,0.2,1.7c0.1,0.6,0.1,1.2,0.1,1.6C22.8,9.9,22.8,10.5,22.8,11.3z"/>
		<path d="M19.2,4.3c-0.4,0-0.8,0.2-1.1,0.5c-0.3,0.3-0.5,0.6-0.5,1.1s0.2,0.8,0.5,1.1c0.3,0.3,0.6,0.5,1.1,0.5
			c0.4,0,0.8-0.2,1.1-0.5c0.3-0.3,0.5-0.6,0.5-1.1S20.5,5,20.2,4.7C19.9,4.4,19.6,4.3,19.2,4.3z"/>
	</g>
</svg>
