<svg xmlns="http://www.w3.org/2000/svg" viewBox="0 0 25 25">
  <title>Icon - Github</title>
  <path d="M12.5,0.2C5.6,0.2,0,5.9,0,12.8c0,5.5,3.6,10.3,8.5,11.9c0.6,0.1,0.9-0.3,0.9-0.6c0-0.3,0-1.1,0-2.1
  	c-3.5,0.8-4.2-1.7-4.2-1.7c-0.6-1.5-1.4-1.8-1.4-1.8c-1.1-0.8,0.1-0.8,0.1-0.8C5.1,17.8,5.8,19,5.8,19c1.1,1.9,2.9,1.4,3.6,1
  	c0.1-0.8,0.4-1.4,0.8-1.7C7.4,18,4.5,17,4.5,12.2c0-1.4,0.5-2.5,1.3-3.4C5.7,8.5,5.3,7.2,5.9,5.5c0,0,1-0.3,3.4,1.3
  	c1-0.3,2.1-0.4,3.1-0.4c1.1,0,2.1,0.1,3.1,0.4c2.4-1.6,3.4-1.3,3.4-1.3c0.7,1.7,0.3,3,0.1,3.3c0.8,0.9,1.3,2,1.3,3.4
  	c0,4.8-2.9,5.9-5.7,6.2c0.4,0.4,0.8,1.2,0.8,2.3c0,1.7,0,3,0,3.4c0,0.3,0.2,0.7,0.9,0.6c5-1.7,8.5-6.4,8.5-11.9
  	C25,5.9,19.4,0.2,12.5,0.2z"/>
</svg>
