<svg xmlns="http://www.w3.org/2000/svg" viewBox="0 0 25 25">
	<title>JenGermann Design Logomark</title>
	<g>
		<path d="M11,11h-0.3c-0.3,0-0.5,0-0.5,0.1c-0.1,0.1-0.1,0.2-0.1,0.9h1.5c0-0.6,0-0.8-0.1-0.9C11.4,11,11.3,11,11,11z"/>
		<path d="M23.3,9c-0.4-1.2,0-2.9-0.7-3.9c-0.7-1-2.4-1.1-3.4-1.9c-1-0.7-1.6-2.3-2.8-2.7C15.2,0.1,13.8,1,12.5,1
			c-1.3,0-2.7-0.9-3.9-0.5c-1.2,0.4-1.8,2-2.8,2.7C4.8,4,3.1,4.1,2.4,5.1C1.7,6.1,2.1,7.7,1.7,9C1.3,10.1,0,11.2,0,12.5
			c0,1.3,1.3,2.4,1.7,3.5c0.4,1.2,0,2.9,0.7,3.9c0.7,1,2.4,1.1,3.4,1.9c1,0.7,1.6,2.3,2.8,2.7c1.2,0.4,2.6-0.5,3.9-0.5
			c1.3,0,2.7,0.9,3.9,0.5c1.2-0.4,1.8-2,2.8-2.7c1-0.7,2.7-0.9,3.4-1.9c0.7-1,0.3-2.7,0.7-3.9c0.4-1.2,1.7-2.2,1.7-3.5
			C25,11.2,23.7,10.1,23.3,9z M5.3,7.4h2v1.5h-2V7.4z M7.4,15.4c0,0.8-0.1,1.1-0.4,1.3c-0.2,0.2-0.5,0.4-1.2,0.4
			c-0.5,0-0.8-0.1-1.3-0.2v-1.4H5c0.3,0,0.4,0,0.4-0.1c0.1-0.1,0.1-0.2,0.1-0.4v-3.9H4.8V9.6h2.7V15.4z M13.4,12.6
			c0,0.2-0.1,0.3-0.3,0.3h-3c0,0.8,0,0.9,0.1,1c0.1,0.1,0.2,0.1,0.5,0.1H11c0.4,0,0.5,0,0.5-0.1c0-0.1,0.1-0.2,0.1-0.6h1.8
			c0,0.8-0.1,1.4-0.4,1.7c-0.2,0.2-0.4,0.4-1.1,0.4H9.8c-0.6,0-0.9-0.1-1.1-0.4c-0.4-0.4-0.6-0.8-0.6-2.5c0-1.7,0.2-2.1,0.6-2.5
			c0.3-0.3,0.5-0.4,1.1-0.4h2c0.6,0,0.9,0.1,1.1,0.4C13.4,10.4,13.4,10.9,13.4,12.6L13.4,12.6z M20.7,15.4h-3.1v-1.5H18v-2.2
			c0-0.2,0-0.3-0.1-0.4c-0.1-0.1-0.2-0.1-0.4-0.1h-0.1c-0.2,0-0.4,0-0.7,0.1v2.5h0.4v1.5h-3.1v-1.5h0.7v-2.7h-0.7V9.6h2.7v0.9
			c0.7-0.7,1-0.9,1.6-0.9h0.3c0.5,0,0.8,0.1,1.1,0.3c0.2,0.2,0.3,0.6,0.3,1.5v2.4h0.6V15.4z"/>
	</g>
</svg>
